<?xml version="1.0" encoding="UTF-8"?>
<svg id="Capa_1" xmlns="http://www.w3.org/2000/svg" version="1.1" viewBox="0 0 584.83 102.13">
  <!-- Generator: Adobe Illustrator 29.7.1, SVG Export Plug-In . SVG Version: 2.1.1 Build 8)  -->
  <defs>
    <style>
      .st0 {
        fill: #fff;
      }

      .st1 {
        fill: #c64eff;
      }

      .st2 {
        fill: #ff8b00;
      }

      .st3 {
        fill: #ff0;
      }
    </style>
  </defs>
  <polygon class="st0" points="35.35 84.29 35.35 13.47 46.28 13.47 46.28 73.76 79.46 73.76 79.46 84.28 35.35 84.28 35.35 84.29"/>
  <path class="st0" d="M123.57,85.29c-4.99,0-9.59-.91-13.81-2.73-4.22-1.82-7.89-4.36-11.03-7.64-3.13-3.27-5.57-7.11-7.28-11.53-1.72-4.42-2.57-9.26-2.57-14.51s.86-10.1,2.57-14.51c1.72-4.42,4.15-8.26,7.28-11.53,3.13-3.27,6.81-5.81,11.03-7.64,4.21-1.82,8.82-2.74,13.81-2.74s9.59.91,13.81,2.74c4.21,1.82,7.89,4.39,11.03,7.69,3.13,3.3,5.57,7.17,7.28,11.58,1.72,4.42,2.57,9.23,2.57,14.42s-.86,10-2.57,14.42c-1.72,4.42-4.15,8.28-7.28,11.58-3.13,3.3-6.81,5.87-11.03,7.69-4.22,1.82-8.82,2.73-13.81,2.73M123.57,74.67c3.44,0,6.6-.64,9.46-1.92,2.86-1.28,5.34-3.09,7.43-5.41,2.09-2.33,3.72-5.06,4.9-8.2,1.18-3.13,1.77-6.56,1.77-10.27s-.59-7.13-1.77-10.27c-1.18-3.13-2.81-5.87-4.9-8.2-2.09-2.33-4.57-4.13-7.43-5.41-2.87-1.28-6.02-1.92-9.46-1.92s-6.6.64-9.46,1.92c-2.87,1.28-5.36,3.07-7.49,5.36-2.12,2.3-3.76,5.01-4.9,8.14-1.15,3.13-1.72,6.6-1.72,10.37s.57,7.15,1.72,10.32c1.15,3.17,2.78,5.9,4.9,8.2,2.12,2.3,4.62,4.08,7.49,5.36,2.86,1.28,6.02,1.92,9.46,1.92v.02Z"/>
  <polygon class="st0" points="194.39 24.27 194.39 84.28 183.46 84.28 183.45 84.29 183.45 24.27 194.39 24.27"/>
  <path class="st0" d="M280.41,54.64c-1.31-2.57-3.15-4.71-5.51-6.43-1.54-1.12-3.25-2.02-5.14-2.69,2.31-1.06,4.21-2.55,5.7-4.44,2.13-2.69,3.19-5.97,3.19-9.81s-.79-7.1-2.38-9.76c-1.59-2.66-3.93-4.67-7.03-6.02-3.1-1.35-6.92-2.03-11.43-2.03h-18.63v10.53h16.8c3.78,0,6.67.81,8.7,2.43,2.03,1.62,3.04,3.94,3.04,6.98,0,1.82-.46,3.44-1.36,4.86-.91,1.42-2.16,2.54-3.74,3.34-1.59.8-3.39,1.21-5.41,1.21h-18.02v-18.54h-10.79v60.02h30.41c3.71,0,7.01-.45,9.92-1.36,2.89-.91,5.38-2.24,7.43-4,2.06-1.75,3.61-3.92,4.66-6.52,1.05-2.6,1.57-5.64,1.57-8.96s-.65-6.23-1.97-8.8M269.7,68.96c-1.04,1.58-2.53,2.78-4.45,3.59-1.92.8-4.27,1.21-7.04,1.21h-19.01v-20.43h18.51c2.76,0,5.15.39,7.18,1.16,2.03.77,3.59,1.91,4.71,3.39,1.11,1.48,1.67,3.27,1.67,5.36,0,2.23-.52,4.13-1.57,5.72"/>
  <path class="st0" d="M289.77,84.29l27.42-70.82h11.12l27.21,70.82h-11.64l-16.19-42.69c-.2-.47-.59-1.62-1.16-3.44-.57-1.82-1.23-3.84-1.97-6.07-.74-2.23-1.42-4.27-2.03-6.12-.61-1.86-1.01-3.05-1.21-3.59l2.33-.1c-.41,1.15-.89,2.6-1.47,4.35-.57,1.75-1.18,3.61-1.82,5.57-.64,1.95-1.27,3.8-1.87,5.51-.61,1.72-1.12,3.15-1.52,4.3l-16.08,42.28h-11.13Z"/>
  <rect class="st1" x="361.42" y="73.36" width="10.92" height="10.93"/>
  <rect class="st1" x="194.39" y="13.47" width="34.01" height="10.79"/>
  <rect class="st2" x="174.42" y="13.47" width="19.97" height="10.79"/>
  <rect class="st3" x="163.63" y="13.47" width="10.79" height="10.79"/>
  <polygon class="st0" points="402.82 27.44 394.24 27.44 394.24 24.78 414.31 24.78 414.31 27.44 405.73 27.44 405.73 50.32 402.82 50.32 402.82 27.44"/>
  <path class="st0" d="M415.8,43.17v-11.71h2.81v11.02c0,3.5,1.9,5.69,5.22,5.69s5.65-2.37,5.65-5.91v-10.8h2.77v18.86h-2.77v-3.28c-1.28,2.04-3.21,3.68-6.46,3.68-4.56,0-7.22-3.07-7.22-7.55"/>
  <path class="st0" d="M449.51,31.46h2.81v3.17c1.24-1.86,2.92-3.58,6.09-3.58s5.04,1.64,6.06,3.76c1.35-2.08,3.36-3.76,6.64-3.76,4.34,0,7.01,2.92,7.01,7.59v11.67h-2.81v-11.02c0-3.65-1.82-5.69-4.89-5.69-2.85,0-5.22,2.12-5.22,5.84v10.87h-2.77v-11.09c0-3.54-1.86-5.62-4.85-5.62s-5.25,2.48-5.25,5.95v10.76h-2.81v-18.86Z"/>
  <path class="st0" d="M492.53,48.31c2.59,0,4.42-1.06,5.95-2.66l1.75,1.57c-1.9,2.12-4.2,3.54-7.77,3.54-5.18,0-9.41-3.98-9.41-9.85,0-5.47,3.83-9.85,9.05-9.85,5.58,0,8.79,4.45,8.79,10,0,.26,0,.55-.04.99h-14.96c.4,3.98,3.32,6.28,6.64,6.28M498.04,39.78c-.33-3.43-2.3-6.35-6.02-6.35-3.25,0-5.73,2.7-6.13,6.35h12.15Z"/>
  <path class="st0" d="M502.52,56.08v-2.3c.44.07.98.11,1.39.11,1.28,0,2.15-.77,2.15-2.52v-19.92h2.81v19.96c0,3.32-1.75,4.85-4.6,4.85-.66,0-1.13-.04-1.75-.18M505.88,24.83h3.21v3.1h-3.21v-3.1Z"/>
  <path class="st0" d="M514.23,40.98v-.07c0-5.33,4.16-9.85,9.85-9.85s9.81,4.45,9.81,9.78v.07c0,5.33-4.2,9.85-9.89,9.85s-9.78-4.45-9.78-9.78M531.02,40.98v-.07c0-4.05-3.03-7.37-7.01-7.37s-6.9,3.32-6.9,7.3v.07c0,4.05,2.99,7.33,6.97,7.33s6.93-3.28,6.93-7.26"/>
  <path class="st0" d="M538.97,31.46h2.81v4.93c1.39-3.14,4.12-5.4,7.7-5.25v3.03h-.22c-4.12,0-7.48,2.96-7.48,8.65v7.51h-2.81v-18.86Z"/>
  <path class="st0" d="M394.24,89.49v-2.3c.44.07.98.11,1.39.11,1.28,0,2.15-.77,2.15-2.52v-19.92h2.81v19.96c0,3.32-1.75,4.85-4.6,4.85-.66,0-1.13-.04-1.75-.18M397.6,57.64h3.21v3.1h-3.21v-3.1Z"/>
  <path class="st0" d="M406.83,76.57v-11.71h2.81v11.02c0,3.5,1.9,5.69,5.22,5.69s5.65-2.37,5.65-5.91v-10.8h2.77v18.86h-2.77v-3.28c-1.28,2.04-3.21,3.68-6.46,3.68-4.56,0-7.22-3.07-7.22-7.55"/>
  <path class="st0" d="M429.37,87.01l1.28-2.19c2.15,1.57,4.56,2.41,7.26,2.41,4.16,0,6.86-2.3,6.86-6.71v-2.23c-1.64,2.19-3.94,3.98-7.41,3.98-4.52,0-8.87-3.39-8.87-8.83v-.07c0-5.51,4.38-8.9,8.87-8.9,3.54,0,5.84,1.75,7.37,3.79v-3.39h2.81v15.58c0,2.92-.88,5.14-2.41,6.68-1.68,1.68-4.2,2.52-7.19,2.52s-6.06-.88-8.57-2.63M444.84,73.4v-.07c0-3.87-3.36-6.39-6.93-6.39s-6.53,2.48-6.53,6.35v.07c0,3.79,3.03,6.42,6.53,6.42s6.93-2.59,6.93-6.39"/>
  <path class="st0" d="M452.39,78.25v-.07c0-4.05,3.28-6.17,8.06-6.17,2.41,0,4.09.33,5.76.8v-.58c0-3.36-2.04-5.11-5.58-5.11-2.23,0-3.98.55-5.73,1.35l-.84-2.3c2.08-.95,4.09-1.6,6.86-1.6s4.74.73,6.09,2.08c1.31,1.31,1.97,3.14,1.97,5.55v11.53h-2.77v-2.81c-1.31,1.68-3.47,3.21-6.79,3.21-3.54,0-7.04-2.01-7.04-5.87M466.26,76.79v-1.75c-1.39-.4-3.21-.8-5.51-.8-3.5,0-5.51,1.53-5.51,3.79v.07c0,2.37,2.19,3.76,4.74,3.76,3.46,0,6.28-2.08,6.28-5.07"/>
  <path class="st0" d="M473.85,74.35v-.07c0-6.17,4.49-9.81,9.01-9.81,3.5,0,5.76,1.9,7.22,4.01v-11.38h2.81v26.63h-2.81v-3.79c-1.53,2.26-3.76,4.2-7.22,4.2-4.52,0-9.01-3.57-9.01-9.78M490.19,74.31v-.07c0-4.34-3.32-7.26-6.82-7.26s-6.64,2.7-6.64,7.26v.07c0,4.45,3.06,7.3,6.64,7.3s6.82-2.96,6.82-7.3"/>
  <path class="st0" d="M497.74,78.25v-.07c0-4.05,3.28-6.17,8.06-6.17,2.41,0,4.09.33,5.76.8v-.58c0-3.36-2.04-5.11-5.58-5.11-2.23,0-3.98.55-5.73,1.35l-.84-2.3c2.08-.95,4.09-1.6,6.86-1.6s4.74.73,6.09,2.08c1.31,1.31,1.97,3.14,1.97,5.55v11.53h-2.77v-2.81c-1.31,1.68-3.47,3.21-6.79,3.21-3.54,0-7.04-2.01-7.04-5.87M511.61,76.79v-1.75c-1.39-.4-3.21-.8-5.51-.8-3.5,0-5.51,1.53-5.51,3.79v.07c0,2.37,2.19,3.76,4.74,3.76,3.46,0,6.28-2.08,6.28-5.07"/>
</svg>